####
#
# OBJ File Generated by Meshlab
#
####
# Object round_belt.obj
#
# Vertices: 150
# Faces: 300
#
####
vn 0.5678720 0.8208446 -0.0611187
v -0.0853984 -0.0535220 -0.0006097
vn 0.0310651 0.9818425 0.1871377
v -0.0054369 -0.0778054 0.0000246
vn -0.4448446 -0.0983686 -0.8901893
v 0.1189424 0.0106367 -0.0029522
vn 0.4469802 0.1714356 0.8779627
v 0.1194521 0.0179846 0.0029121
vn 0.3384693 0.7357282 0.5866367
v 0.0725836 0.0679326 0.0020289
vn 0.0087346 0.0840423 0.9964240
v 0.0079954 0.0820044 0.0030364
vn -0.0532657 -0.7140315 -0.6980844
v 0.0125237 0.0789264 -0.0025427
vn 0.0091686 0.5392531 -0.8420939
v -0.0006898 0.0830340 -0.0026791
vn 0.0443544 0.1274217 -0.9908564
v 0.0497942 0.0749872 -0.0029758
vn -0.1708233 -0.9848367 0.0302679
v 0.0277299 0.0757454 0.0005337
vn -0.1114539 -0.5560995 0.8236088
v 0.0354660 0.0757818 0.0025710
vn -0.1885006 -0.7876750 -0.5865456
v 0.0399494 0.0738551 -0.0019404
vn 0.0786043 0.9858925 -0.1477745
v 0.0138627 0.0836608 -0.0006036
vn -0.1516399 -0.3436028 0.9267915
v 0.0674365 0.0665710 0.0029020
vn -0.4268327 -0.8758392 0.2252103
v 0.0680759 0.0635097 0.0007425
vn -0.2926981 -0.6513650 -0.7000368
v 0.0661017 0.0659756 -0.0025419
vn -0.0347133 -0.9331313 0.3578561
v 0.0059324 0.0781589 0.0014954
vn -0.2887723 -0.9403982 0.1796159
v 0.0510630 0.0701490 0.0004923
vn 0.1164060 0.4579124 0.8813432
v 0.0386806 0.0787685 0.0027562
vn 0.3748048 0.8392926 -0.3938393
v 0.0653633 0.0715144 -0.0010037
vn 0.0967475 0.8614162 0.4986001
v 0.0218974 0.0820208 0.0023334
vn 0.2231773 0.9548134 -0.1962736
v 0.0401990 0.0796969 -0.0011710
vn -0.5087479 -0.5228240 -0.6839816
v 0.0978528 0.0441868 -0.0020153
vn -0.3303023 -0.4749880 -0.8156512
v 0.0842522 0.0558623 -0.0025382
vn 0.1339057 0.2229178 -0.9655967
v 0.0804157 0.0615564 -0.0029795
vn 0.5980472 0.7933627 -0.1136444
v 0.0937609 0.0554688 -0.0006242
vn -0.5610123 -0.8090587 0.1751840
v 0.0866614 0.0527329 0.0009372
vn -0.7738873 -0.6297568 0.0671174
v 0.1039947 0.0364572 0.0000578
vn 0.3528408 0.2779207 -0.8934560
v 0.1059217 0.0416140 -0.0028852
vn -0.4324718 -0.2459973 0.8674408
v 0.1082433 0.0332397 0.0027302
vn -0.9290162 0.0854186 0.3600452
v 0.1175847 -0.0057175 0.0019387
vn -0.6468365 -0.1447382 0.7487679
v 0.1177607 0.0110520 0.0024376
vn -0.9752092 -0.0940901 -0.2002851
v 0.1172748 0.0061381 -0.0007427
vn -0.9090569 -0.3594594 -0.2107239
v 0.1139875 0.0190448 -0.0005609
vn 0.8605313 0.4282024 -0.2759144
v 0.1172602 0.0277734 -0.0004502
vn 0.0132839 0.0468445 0.9988139
v 0.0928935 0.0530457 0.0031752
vn -0.4344590 0.8097882 -0.3943202
v 0.0798486 -0.0573734 -0.0010103
vn 0.8436502 -0.2540137 0.4730026
v 0.1203012 -0.0199971 0.0017192
vn 0.6727596 -0.7138354 0.1945085
v 0.1006138 -0.0497513 0.0000018
vn -0.2414596 0.7544503 -0.6103296
v 0.0512002 -0.0706579 -0.0016402
vn 0.5620068 -0.4213660 0.7117577
v 0.1109688 -0.0359007 0.0028865
vn 0.0347625 -0.0620529 -0.9974673
v 0.0664345 -0.0683295 -0.0031442
vn -0.0842553 0.0515453 -0.9951102
v 0.0833709 -0.0591577 -0.0032307
vn 0.4991062 -0.7145970 -0.4901469
v 0.0881965 -0.0585990 -0.0016498
vn -0.1427147 0.0713626 0.9871879
v 0.1034613 -0.0424333 0.0031404
vn 0.1100623 0.7110597 0.6944641
v -0.0244476 -0.0770032 0.0019824
vn -0.0247434 -0.0548239 0.9981894
v -0.0388140 -0.0774600 0.0030694
vn 0.0216007 0.7412190 0.6709156
v 0.0140812 -0.0780236 0.0018328
vn 0.1601860 -0.4584675 0.8741556
v 0.0535642 -0.0745690 0.0029190
vn -0.8391812 0.5393277 0.0700041
v 0.1079497 -0.0309630 0.0005526
vn -0.1768260 -0.1204191 -0.9768479
v 0.1129714 0.0283246 -0.0032063
vn -0.1162148 -0.7284823 0.6751353
v -0.0290840 -0.0805694 0.0026309
vn 0.1582875 0.5868667 -0.7940608
v -0.0472516 -0.0728155 -0.0024138
vn 0.1793421 0.9776669 -0.1095628
v -0.0295244 -0.0753636 -0.0004254
vn -0.2844020 0.4433104 0.8500537
v 0.0826866 -0.0574737 0.0026964
vn 0.1973890 -0.9527559 0.2308546
v 0.0405622 -0.0793262 0.0017761
vn -0.0061060 -0.7360537 -0.6768956
v 0.0008206 -0.0836363 -0.0019055
vn -0.0619269 0.9906803 -0.1213158
v 0.0162409 -0.0772020 -0.0005640
vn -0.7635383 0.2943115 0.5747957
v 0.1150945 -0.0172379 0.0015143
vn 0.4177699 -0.8790516 -0.2296448
v 0.0713315 -0.0693261 0.0002854
vn 0.9774857 0.2092869 0.0268470
v 0.1221469 0.0140047 -0.0000083
vn -0.6638429 0.0497205 -0.7462175
v 0.1182103 -0.0068939 -0.0022357
vn -0.0524044 -0.3998238 -0.9150927
v -0.0225425 -0.0807218 -0.0030497
vn -0.5281340 0.4176079 -0.7393768
v 0.1046326 -0.0371339 -0.0020449
vn 0.4144540 0.7801132 0.4686697
v -0.0763783 -0.0597705 0.0016537
vn 0.2754723 -0.8851382 -0.3750274
v 0.0494084 -0.0766069 -0.0021127
vn -0.0026542 -0.0722062 -0.9973862
v -0.0574532 -0.0723453 -0.0029886
vn 0.3745511 -0.5749815 0.7273980
v 0.0825884 -0.0618762 0.0025678
vn 0.0334688 0.3778074 -0.9252791
v -0.0049565 -0.0810274 -0.0031558
vn 0.3310412 0.9416821 -0.0603873
v -0.0517846 -0.0700129 -0.0000822
vn 0.0362315 0.0427901 0.9984269
v 0.0224969 -0.0805341 0.0031040
vn -0.3506770 -0.5532240 -0.7556248
v -0.0821275 -0.0615762 -0.0026603
vn 0.7013376 0.6933491 0.1655068
v -0.1002288 -0.0406819 0.0013480
vn -0.0783021 -0.1499804 0.9855834
v -0.0709728 -0.0665321 0.0031567
vn 0.9930712 -0.0368938 0.1115729
v 0.1239298 -0.0004531 0.0004264
vn 0.8755879 -0.3178742 -0.3637333
v 0.1208494 -0.0188748 -0.0013640
vn -0.2519606 0.7531326 0.6077064
v 0.0482059 -0.0718655 0.0015678
vn 0.0405613 0.0505624 -0.9978970
v -0.0964335 -0.0493303 -0.0030327
vn 0.0410684 -0.3204570 -0.9463724
v 0.0300109 -0.0796648 -0.0030926
vn 0.2337908 0.0345821 0.9716718
v 0.1222771 0.0009429 0.0029565
vn 0.4819711 -0.3535089 -0.8017077
v 0.1096115 -0.0369926 -0.0029633
vn -0.2346279 -0.9308755 0.2800367
v -0.0453336 -0.0783096 0.0008673
vn 0.8337485 0.4354589 0.3394689
v -0.1112816 -0.0260827 0.0015049
vn 0.3930427 0.7671807 -0.5069036
v -0.0718609 -0.0623232 -0.0019200
vn -0.7784843 0.3088678 -0.5464091
v 0.1147183 -0.0205857 -0.0024899
vn -0.0357474 -0.0087483 0.9993226
v -0.1104373 -0.0334626 0.0031845
vn -0.2837551 -0.1440953 -0.9480082
v -0.1161246 -0.0254385 -0.0029349
vn 0.4033701 0.5631236 -0.7212381
v -0.0892991 -0.0529290 -0.0027267
vn -0.6632230 0.7413383 0.1027272
v 0.0945457 -0.0464072 0.0008841
vn 0.3275342 0.1127418 -0.9380889
v 0.1206126 0.0133131 -0.0028552
vn -0.0644441 0.0043875 -0.9979117
v -0.1185949 -0.0178522 -0.0031957
vn -0.1269618 -0.9827894 -0.1341854
v -0.0241713 -0.0825651 -0.0005115
vn 0.0376395 -0.9756030 0.2162916
v 0.0081060 -0.0843669 0.0002111
vn 0.0421959 -0.0278732 -0.9987205
v 0.1182161 -0.0203317 -0.0029483
vn 0.5864975 0.2937179 -0.7548183
v -0.1147901 -0.0200933 -0.0024344
vn 0.7494497 0.0077143 -0.6620164
v 0.1228583 0.0013679 -0.0024932
vn 0.6491887 0.5200964 0.5550259
v 0.1093619 0.0391230 0.0017772
vn 0.3543948 0.4537464 0.8176299
v -0.0884896 -0.0531017 0.0026432
vn 0.9621865 -0.2667104 0.0553433
v -0.1149090 0.0158459 -0.0000561
vn -0.2562777 -0.8766240 -0.4072495
v -0.0471524 -0.0776961 -0.0012640
vn 0.0057256 0.0717120 0.9974090
v -0.0000863 -0.0818000 0.0032015
vn 0.2047943 0.6630348 0.7200307
v -0.0520316 -0.0711336 0.0023518
vn -0.3763414 0.3232932 0.8682446
v -0.1028823 0.0439923 0.0030469
vn 0.0987163 0.0378205 0.9943967
v -0.1183993 -0.0147944 0.0031192
vn 0.0105521 -0.0665359 0.9977282
v -0.1216721 0.0007329 0.0031526
vn -0.7375988 0.1551886 0.6571640
v -0.1216551 0.0123758 0.0025201
vn -0.2926484 -0.8064693 0.5137744
v -0.0612918 -0.0727531 0.0015588
vn -0.3838432 -0.5006309 0.7759079
v -0.0928101 -0.0547247 0.0026183
vn -0.6018996 -0.7980655 -0.0284302
v -0.0913072 -0.0571129 0.0005604
vn -0.8850482 0.1755101 -0.4311449
v -0.1228124 0.0106804 -0.0014669
vn -0.2637153 0.3734076 0.8893936
v -0.0863169 0.0582897 0.0029617
vn -0.4398637 -0.8977798 -0.0226153
v -0.0710654 -0.0690095 -0.0006470
vn -0.5316748 0.8156562 -0.2280943
v -0.0880266 0.0593769 -0.0007304
vn -0.8567123 0.4298568 0.2850738
v -0.1168386 0.0283885 0.0010597
vn -0.9107663 -0.3579444 0.2058655
v -0.1195658 -0.0223640 0.0010809
vn -0.7778556 -0.6253722 0.0620517
v -0.1095751 -0.0399360 -0.0003740
vn -0.9953972 -0.0869391 0.0403236
v -0.1240708 -0.0035818 -0.0002221
vn -0.3128739 0.9419283 0.1219881
v -0.0541285 0.0757685 0.0006314
vn -0.6362674 0.6899657 -0.3451249
v -0.0995698 0.0505987 -0.0010459
vn -0.4673287 -0.4902959 -0.7356724
v -0.1011030 -0.0472672 -0.0024453
vn -0.3283732 0.7063183 -0.6271249
v -0.0713625 0.0679986 -0.0019946
vn 0.0371508 -0.2570800 -0.9656758
v -0.0190947 0.0798562 -0.0030822
vn -0.5368844 0.4199211 -0.7317250
v -0.1103250 0.0378201 -0.0022856
vn -0.0315203 0.0490687 -0.9982979
v -0.0624474 0.0695821 -0.0031418
vn -0.2056794 0.7616065 -0.6145335
v -0.0448004 0.0776676 -0.0023011
vn 0.2210110 -0.9247218 0.3099093
v -0.0366633 0.0742635 0.0011725
vn 0.4986431 -0.7242087 -0.4763158
v -0.0838312 0.0550848 -0.0018027
vn -0.0105306 -0.0331808 -0.9993939
v -0.0861504 0.0572229 -0.0031070
vn 0.0575401 -0.3003452 0.9520934
v -0.0343862 0.0774512 0.0030682
vn 0.0822664 -0.8504304 0.5196157
v -0.0187059 0.0776781 0.0019102
vn 0.3138700 -0.7856793 0.5330983
v -0.0600517 0.0674209 0.0016500
vn 0.4106355 -0.4490169 -0.7935756
v -0.0951887 0.0465731 -0.0022342
vn 0.4401321 -0.8705638 -0.2200058
v -0.0695730 0.0626633 -0.0000812
vn -0.1377368 0.7748436 0.6169651
v -0.0284939 0.0809259 0.0025924
vn 0.5848576 -0.5524808 0.5938910
v -0.0984374 0.0424342 0.0011423
vn 0.4345697 -0.6886816 0.5804023
v -0.0836299 0.0561991 0.0025818
vn -0.1300776 0.0674270 -0.9892085
v -0.1183997 0.0184455 -0.0033872
vn 0.7338901 -0.4743569 -0.4862006
v -0.1089568 0.0297577 -0.0016074
vn -0.0206746 0.9712874 0.2370093
v -0.0039885 0.0840482 0.0008125
vn 0.1635584 -0.0589855 -0.9847687
v -0.1200927 -0.0084059 -0.0029935
vn -0.0990260 0.2669385 0.9586124
v -0.0613357 0.0712500 0.0029645
vn 0.5693747 0.4386659 -0.6952587
v -0.1058674 -0.0361578 -0.0023668
vn -0.4316857 0.8669503 0.2490878
v -0.0728696 0.0681178 0.0005311
vn 0.3627763 -0.1930408 0.9116626
v -0.1119132 0.0283452 0.0028506
vn 0.9459122 0.2993537 -0.1250501
v -0.1161360 -0.0123567 0.0004049
vn 0.1711293 -0.9473504 -0.2706325
v -0.0295535 0.0759377 -0.0014234
vn 0.2865977 -0.8465008 -0.4486627
v -0.0550597 0.0695735 -0.0019506
vn 0.0399998 -0.9599736 -0.2772195
v -0.0013274 0.0779925 -0.0008737
vn -0.1179596 0.8730044 -0.4732324
v -0.0259825 0.0819830 -0.0019658
vn 0.9638833 0.0267944 0.2649738
v -0.1175782 0.0037318 0.0011290
# 150 vertices, 0 vertices normals

f 25//25 16//16 9//9
f 148//148 7//7 17//17
f 17//17 7//7 10//10
f 7//7 9//9 12//12
f 7//7 12//12 10//10
f 11//11 17//17 10//10
f 17//17 6//6 130//130
f 9//9 8//8 22//22
f 10//10 12//12 18//18
f 19//19 6//6 11//11
f 22//22 8//8 13//13
f 19//19 11//11 14//14
f 18//18 14//14 11//11
f 13//13 8//8 139//139
f 12//12 16//16 18//18
f 14//14 18//18 15//15
f 16//16 12//12 9//9
f 16//16 15//15 18//18
f 5//5 19//19 14//14
f 22//22 19//19 5//5
f 22//22 5//5 20//20
f 22//22 21//21 19//19
f 6//6 21//21 139//139
f 21//21 13//13 139//139
f 20//20 9//9 22//22
f 22//22 13//13 21//21
f 24//24 16//16 25//25
f 36//36 14//14 27//27
f 36//36 27//27 28//28
f 36//36 28//28 30//30
f 26//26 20//20 5//5
f 20//20 26//26 25//25
f 25//25 26//26 29//29
f 15//15 16//16 27//27
f 27//27 16//16 24//24
f 27//27 24//24 23//23
f 4//4 30//30 32//32
f 27//27 23//23 28//28
f 35//35 51//51 29//29
f 97//97 29//29 26//26
f 30//30 28//28 34//34
f 34//34 28//28 51//51
f 23//23 24//24 29//29
f 5//5 36//36 26//26
f 51//51 35//35 90//90
f 51//51 28//28 23//23
f 29//29 24//24 25//25
f 32//32 30//30 34//34
f 51//51 90//90 3//3
f 51//51 3//3 34//34
f 51//51 23//23 29//29
f 79//79 40//40 42//42
f 37//37 43//43 42//42
f 38//38 75//75 80//80
f 80//80 4//4 32//32
f 58//58 79//79 69//69
f 37//37 42//42 40//40
f 43//43 44//44 60//60
f 43//43 60//60 42//42
f 2//2 48//48 58//58
f 58//58 77//77 40//40
f 41//41 81//81 76//76
f 41//41 76//76 38//38
f 31//31 80//80 32//32
f 79//79 58//58 40//40
f 66//66 79//79 42//42
f 44//44 43//43 81//81
f 44//44 81//81 39//39
f 39//39 81//81 41//41
f 41//41 38//38 80//80
f 101//101 47//47 52//52
f 57//57 79//79 93//93
f 62//62 31//31 33//33
f 34//34 3//3 33//33
f 33//33 3//3 62//62
f 31//31 62//62 85//85
f 31//31 85//85 59//59
f 68//68 49//49 60//60
f 54//54 46//46 2//2
f 101//101 2//2 46//46
f 101//101 46//46 47//47
f 48//48 2//2 101//101
f 70//70 102//102 54//54
f 46//46 102//102 47//47
f 26//26 36//36 97//97
f 68//68 55//55 49//49
f 68//68 44//44 39//39
f 39//39 41//41 45//45
f 59//59 80//80 31//31
f 65//65 102//102 70//70
f 60//60 44//44 68//68
f 59//59 41//41 80//80
f 90//90 61//61 96//96
f 85//85 64//64 50//50
f 50//50 64//64 89//89
f 92//92 100//100 63//63
f 66//66 42//42 60//60
f 93//93 71//71 101//101
f 69//69 2//2 58//58
f 97//97 4//4 35//35
f 61//61 75//75 96//96
f 55//55 37//37 77//77
f 56//56 93//93 79//79
f 70//70 53//53 84//84
f 70//70 54//54 53//53
f 54//54 2//2 69//69
f 68//68 39//39 45//45
f 112//112 109//109 72//72
f 94//94 76//76 81//81
f 94//94 81//81 64//64
f 67//67 112//112 72//72
f 45//45 41//41 59//59
f 27//27 14//14 15//15
f 84//84 65//65 70//70
f 53//53 54//54 69//69
f 66//66 60//60 49//49
f 98//98 108//108 74//74
f 73//73 98//98 1//1
f 1//1 65//65 84//84
f 57//57 69//69 79//79
f 79//79 66//66 56//56
f 55//55 68//68 45//45
f 89//89 45//45 50//50
f 50//50 45//45 59//59
f 33//33 31//31 32//32
f 33//33 32//32 34//34
f 63//63 53//53 69//69
f 56//56 66//66 49//49
f 78//78 72//72 120//120
f 78//78 87//87 142//142
f 63//63 69//69 57//57
f 55//55 45//45 89//89
f 50//50 59//59 85//85
f 90//90 62//62 3//3
f 35//35 29//29 97//97
f 98//98 73//73 86//86
f 93//93 56//56 71//71
f 88//88 1//1 84//84
f 53//53 63//63 67//67
f 92//92 63//63 57//57
f 61//61 90//90 35//35
f 73//73 1//1 88//88
f 88//88 84//84 67//67
f 67//67 84//84 53//53
f 92//92 57//57 93//93
f 55//55 77//77 49//49
f 94//94 90//90 96//96
f 104//104 86//86 83//83
f 145//145 83//83 95//95
f 83//83 73//73 142//142
f 142//142 73//73 88//88
f 67//67 63//63 100//100
f 71//71 56//56 49//49
f 37//37 55//55 89//89
f 85//85 62//62 94//94
f 95//95 83//83 142//142
f 71//71 49//49 77//77
f 61//61 35//35 4//4
f 150//150 104//104 145//145
f 94//94 64//64 85//85
f 94//94 96//96 76//76
f 30//30 97//97 36//36
f 99//99 150//150 140//140
f 78//78 88//88 67//67
f 112//112 67//67 100//100
f 82//82 100//100 92//92
f 52//52 92//92 93//93
f 52//52 93//93 101//101
f 37//37 89//89 43//43
f 43//43 89//89 64//64
f 76//76 96//96 75//75
f 4//4 97//97 30//30
f 74//74 102//102 65//65
f 74//74 65//65 98//98
f 86//86 73//73 83//83
f 78//78 67//67 72//72
f 43//43 64//64 81//81
f 75//75 61//61 80//80
f 80//80 61//61 4//4
f 83//83 145//145 104//104
f 105//105 150//150 99//99
f 142//142 87//87 95//95
f 46//46 54//54 102//102
f 105//105 99//99 144//144
f 47//47 102//102 74//74
f 105//105 104//104 150//150
f 108//108 98//98 86//86
f 105//105 144//144 106//106
f 114//114 106//106 144//144
f 114//114 144//144 103//103
f 52//52 47//47 107//107
f 107//107 47//47 74//74
f 115//115 86//86 104//104
f 116//116 108//108 86//86
f 82//82 52//52 107//107
f 117//117 115//115 104//104
f 117//117 104//104 105//105
f 119//119 103//103 111//111
f 116//116 86//86 115//115
f 116//116 109//109 108//108
f 117//117 105//105 106//106
f 123//123 114//114 103//103
f 107//107 74//74 112//112
f 112//112 74//74 108//108
f 112//112 108//108 109//109
f 117//117 106//106 110//110
f 119//119 123//123 103//103
f 113//113 119//119 111//111
f 113//113 111//111 143//143
f 114//114 110//110 106//106
f 137//137 110//110 114//114
f 120//120 109//109 116//116
f 121//121 113//113 143//143
f 72//72 109//109 120//120
f 87//87 116//116 115//115
f 87//87 115//115 91//91
f 121//121 143//143 118//118
f 121//121 118//118 125//125
f 91//91 115//115 117//117
f 137//137 114//114 123//123
f 120//120 116//116 87//87
f 140//140 91//91 117//117
f 140//140 117//117 110//110
f 128//128 119//119 113//113
f 124//124 121//121 125//125
f 128//128 113//113 121//121
f 124//124 128//128 121//121
f 87//87 78//78 120//120
f 95//95 87//87 91//91
f 126//126 147//147 146//146
f 128//128 124//124 147//147
f 133//133 128//128 147//147
f 131//131 147//147 126//126
f 133//133 127//127 128//128
f 133//133 147//147 131//131
f 126//126 130//130 129//129
f 129//129 130//130 6//6
f 132//132 128//128 127//127
f 123//123 132//132 138//138
f 134//134 129//129 6//6
f 131//131 126//126 129//129
f 136//136 127//127 133//133
f 138//138 132//132 135//135
f 132//132 127//127 136//136
f 137//137 123//123 138//138
f 141//141 131//131 129//129
f 136//136 133//133 131//131
f 141//141 129//129 134//134
f 135//135 132//132 136//136
f 136//136 131//131 141//141
f 141//141 134//134 118//118
f 99//99 137//137 138//138
f 149//149 134//134 139//139
f 149//149 139//139 8//8
f 141//141 111//111 136//136
f 136//136 111//111 135//135
f 135//135 144//144 138//138
f 99//99 140//140 137//137
f 118//118 134//134 125//125
f 125//125 134//134 149//149
f 141//141 143//143 111//111
f 78//78 142//142 88//88
f 82//82 92//92 52//52
f 1//1 98//98 65//65
f 8//8 9//9 7//7
f 8//8 7//7 122//122
f 146//146 122//122 148//148
f 148//148 122//122 7//7
f 147//147 124//124 122//122
f 147//147 122//122 146//146
f 148//148 130//130 146//146
f 146//146 130//130 126//126
f 10//10 18//18 11//11
f 17//17 11//11 6//6
f 6//6 19//19 21//21
f 148//148 17//17 130//130
f 134//134 6//6 139//139
f 111//111 103//103 135//135
f 138//138 144//144 99//99
f 140//140 150//150 91//91
f 122//122 149//149 8//8
f 141//141 118//118 143//143
f 135//135 103//103 144//144
f 150//150 145//145 91//91
f 91//91 145//145 95//95
f 112//112 100//100 107//107
f 107//107 100//100 82//82
f 48//48 101//101 71//71
f 48//48 71//71 58//58
f 58//58 71//71 77//77
f 40//40 77//77 37//37
f 38//38 76//76 75//75
f 149//149 122//122 125//125
f 125//125 122//122 124//124
f 119//119 128//128 132//132
f 119//119 132//132 123//123
f 137//137 140//140 110//110
f 94//94 62//62 90//90
f 14//14 36//36 5//5
f 20//20 25//25 9//9
# 300 faces, 0 coords texture

# End of File
