{"scene":0,"asset":{"generator":"ImageToStl.com","version":"2.0"},"scenes":[{"name":"Scene","nodes":[0]}],"nodes":[{"name":"Node0","children":[1]},{"name":"Node1","mesh":0}],"materials":[{"name":"mat0","pbrMetallicRoughness":{"baseColorFactor":[0.79216,0.81961,0.93333,1.0],"metallicFactor":0.0,"roughnessFactor":0.75},"emissiveFactor":[0.0,0.0,0.0],"doubleSided":true},{"name":"mat1","pbrMetallicRoughness":{"baseColorFactor":[1.0,1.0,1.0,1.0],"metallicFactor":0.0,"roughnessFactor":0.75},"emissiveFactor":[0.0,0.0,0.0],"doubleSided":true},{"name":"mat2","pbrMetallicRoughness":{"baseColorFactor":[1.0,1.0,1.0,1.0],"metallicFactor":0.0,"roughnessFactor":0.75},"emissiveFactor":[0.0,0.0,0.0],"doubleSided":true},{"name":"mat3","pbrMetallicRoughness":{"baseColorFactor":[1.0,1.0,1.0,1.0],"metallicFactor":0.0,"roughnessFactor":0.75},"emissiveFactor":[0.0,0.0,0.0],"doubleSided":true},{"name":"mat4","pbrMetallicRoughness":{"baseColorFactor":[1.0,1.0,1.0,1.0],"metallicFactor":0.0,"roughnessFactor":0.75},"emissiveFactor":[0.0,0.0,0.0],"doubleSided":true},{"name":"mat5","pbrMetallicRoughness":{"baseColorFactor":[1.0,1.0,1.0,1.0],"metallicFactor":0.0,"roughnessFactor":0.75},"emissiveFactor":[0.0,0.0,0.0],"doubleSided":true},{"name":"mat6","pbrMetallicRoughness":{"baseColorFactor":[1.0,1.0,1.0,1.0],"metallicFactor":0.0,"roughnessFactor":0.75},"emissiveFactor":[0.0,0.0,0.0],"doubleSided":true},{"name":"mat7","pbrMetallicRoughness":{"baseColorFactor":[1.0,1.0,1.0,1.0],"metallicFactor":0.0,"roughnessFactor":0.75,"baseColorTexture":{"index":0}},"emissiveFactor":[0.0,0.0,0.0],"doubleSided":true},{"name":"mat8","pbrMetallicRoughness":{"baseColorFactor":[0.85,0.85,0.85,1.0],"metallicFactor":0.0,"roughnessFactor":0.75},"emissiveFactor":[0.0,0.0,0.0],"doubleSided":true}],"images":[{"bufferView":0,"name":"","mimeType":"image/jpeg"}],"textures":[{"sampler":0,"source":0}],"samplers":[{"magFilter":9729,"minFilter":9987}],"meshes":[{"name":"Mesh0","primitives":[{"indices":2,"material":1,"attributes":{"POSITION":0,"TEXCOORD_0":1}},{"indices":3,"material":2,"attributes":{"POSITION":0,"TEXCOORD_0":1}},{"indices":4,"material":4,"attributes":{"POSITION":0,"TEXCOORD_0":1}},{"indices":5,"material":5,"attributes":{"POSITION":0,"TEXCOORD_0":1}},{"indices":6,"material":6,"attributes":{"POSITION":0,"TEXCOORD_0":1}},{"indices":7,"material":7,"attributes":{"POSITION":0,"TEXCOORD_0":1}},{"indices":8,"material":8,"attributes":{"POSITION":0,"TEXCOORD_0":1}}]}],"accessors":[{"bufferView":1,"componentType":5126,"count":901,"type":"VEC3","min":[-762.0,-457.2,-789.94],"max":[762.0,457.2,-2.54]},{"bufferView":2,"componentType":5126,"count":901,"type":"VEC2"},{"bufferView":3,"componentType":5123,"count":1593,"type":"SCALAR"},{"bufferView":4,"componentType":5123,"count":2601,"type":"SCALAR"},{"bufferView":5,"componentType":5123,"count":72,"type":"SCALAR"},{"bufferView":6,"componentType":5123,"count":72,"type":"SCALAR"},{"bufferView":7,"componentType":5123,"count":36,"type":"SCALAR"},{"bufferView":8,"componentType":5123,"count":909,"type":"SCALAR"},{"bufferView":9,"componentType":5123,"count":9063,"type":"SCALAR"}],"bufferViews":[{"buffer":0,"byteLength":197724,"byteOffset":0},{"target":34962,"buffer":0,"byteLength":10812,"byteOffset":197724},{"target":34962,"buffer":0,"byteLength":7208,"byteOffset":208536},{"target":34963,"buffer":0,"byteLength":3186,"byteOffset":215744},{"target":34963,"buffer":0,"byteLength":5202,"byteOffset":218932},{"target":34963,"buffer":0,"byteLength":144,"byteOffset":224136},{"target":34963,"buffer":0,"byteLength":144,"byteOffset":224280},{"target":34963,"buffer":0,"byteLength":72,"byteOffset":224424},{"target":34963,"buffer":0,"byteLength":1818,"byteOffset":224496},{"target":34963,"buffer":0,"byteLength":18126,"byteOffset":226316}],"buffers":[{"byteLength":244444,"uri":"data:application/octet-stream;base64,"}]}